# xmcd
#
# Track frame offsets:
#	150
#	17129
#	35445
#	55729
#	73777
#	91794
#	108543
#	122955
#	141250
#	155272
#	172491
#	187641
#	205403
#	221995
#	234655
#	250324
#	260678
#	275563
#	290926
#
# Disc length: 4105 seconds
#
# Revision: 0
# Processed by: cddbd v1.4PL0 Copyright (c) Steve Scherf et al.
# Submitted via: dBpowerAMP V4.0
#
DISCID=31100713
DTITLE=Rebecca Lynn Howard - Forgive
DYEAR=2002
DGENRE=Country
TTITLE0=Beautiful To You
TTITLE1=Dancin' in God's Country
TTITLE2=Didn't Look Like Alcohol
TTITLE3=Forgive
TTITLE4=Jesus and Bartenders
TTITLE5=Life Had Other Plans
TTITLE6=Pink Flamingo Kind of Love
TTITLE7=This Love
TTITLE8=When Did You Ever Listen to Me
TTITLE9=Believe it or Not
TTITLE10=Heartsounds
TTITLE11=Jesus, Daddy and You
TTITLE12=Melancholy Blue
TTITLE13=Move Me
TTITLE14=Out Here in the Water
TTITLE15=Tennesee in my Windshield
TTITLE16=When my Dreams Come True
TTITLE17=You're Not A Memory Yet
TTITLE18=You're Real
EXTD=Forgive and Rebecca Lynn Howard
EXTT0=
EXTT1=
EXTT2=
EXTT3=
EXTT4=
EXTT5=
EXTT6=
EXTT7=
EXTT8=
EXTT9=
EXTT10=
EXTT11=
EXTT12=
EXTT13=
EXTT14=
EXTT15=
EXTT16=
EXTT17=
EXTT18=
PLAYORDER=
